HIERARCHY
ROOT Hips
{
  OFFSET 0.000000 95.000000 0.000000
  CHANNELS 6 Xposition Yposition Zposition Zrotation Xrotation Yrotation
  JOINT Spine
  {
    OFFSET 0.000000 10.000000 0.000000
    CHANNELS 3 Zrotation Xrotation Yrotation
    JOINT Spine1
    {
      OFFSET 0.000000 12.000000 0.000000
      CHANNELS 3 Zrotation Xrotation Yrotation
      JOINT Spine2
      {
        OFFSET 0.000000 12.000000 0.000000
        CHANNELS 3 Zrotation Xrotation Yrotation
        JOINT Neck
        {
          OFFSET 0.000000 10.000000 0.000000
          CHANNELS 3 Zrotation Xrotation Yrotation
          JOINT Head
          {
            OFFSET 0.000000 8.000000 0.000000
            CHANNELS 3 Zrotation Xrotation Yrotation
            End Site
            {
              OFFSET 0.000000 10.000000 0.000000
            }
          }
        }
        JOINT LeftShoulder
        {
          OFFSET 6.000000 8.000000 0.000000
          CHANNELS 3 Zrotation Xrotation Yrotation
          JOINT LeftArm
          {
            OFFSET 12.000000 0.000000 0.000000
            CHANNELS 3 Zrotation Xrotation Yrotation
            JOINT LeftForeArm
            {
              OFFSET 24.000000 0.000000 0.000000
              CHANNELS 3 Zrotation Xrotation Yrotation
              JOINT LeftHand
              {
                OFFSET 22.000000 0.000000 0.000000
                CHANNELS 3 Zrotation Xrotation Yrotation
                JOINT LeftHandThumb1
                {
                  OFFSET 1.800000 -1.400000 0.500000
                  CHANNELS 3 Zrotation Xrotation Yrotation
                  JOINT LeftHandThumb2
                  {
                    OFFSET 2.400000 0.000000 0.000000
                    CHANNELS 3 Zrotation Xrotation Yrotation
                    JOINT LeftHandThumb3
                    {
                      OFFSET 1.900000 0.000000 0.000000
                      CHANNELS 3 Zrotation Xrotation Yrotation
                      End Site
                      {
                        OFFSET 1.600000 0.000000 0.000000
                      }
                    }
                  }
                }
                JOINT LeftHandIndex1
                {
                  OFFSET 6.600000 1.200000 0.300000
                  CHANNELS 3 Zrotation Xrotation Yrotation
                  JOINT LeftHandIndex2
                  {
                    OFFSET 2.000000 0.000000 0.000000
                    CHANNELS 3 Zrotation Xrotation Yrotation
                    JOINT LeftHandIndex3
                    {
                      OFFSET 1.200000 0.000000 0.000000
                      CHANNELS 3 Zrotation Xrotation Yrotation
                      End Site
                      {
                        OFFSET 1.000000 0.000000 0.000000
                      }
                    }
                  }
                }
                JOINT LeftHandMiddle1
                {
                  OFFSET 7.200000 0.000000 0.300000
                  CHANNELS 3 Zrotation Xrotation Yrotation
                  JOINT LeftHandMiddle2
                  {
                    OFFSET 3.000000 0.000000 0.000000
                    CHANNELS 3 Zrotation Xrotation Yrotation
                    JOINT LeftHandMiddle3
                    {
                      OFFSET 2.000000 0.000000 0.000000
                      CHANNELS 3 Zrotation Xrotation Yrotation
                      End Site
                      {
                        OFFSET 1.600000 0.000000 0.000000
                      }
                    }
                  }
                }
                JOINT LeftHandRing1
                {
                  OFFSET 7.100000 -1.000000 0.400000
                  CHANNELS 3 Zrotation Xrotation Yrotation
                  JOINT LeftHandRing2
                  {
                    OFFSET 2.600000 0.000000 0.000000
                    CHANNELS 3 Zrotation Xrotation Yrotation
                    JOINT LeftHandRing3
                    {
                      OFFSET 1.600000 0.000000 0.000000
                      CHANNELS 3 Zrotation Xrotation Yrotation
                      End Site
                      {
                        OFFSET 1.300000 0.000000 0.000000
                      }
                    }
                  }
                }
                JOINT LeftHandPinky1
                {
                  OFFSET 6.500000 -2.000000 0.500000
                  CHANNELS 3 Zrotation Xrotation Yrotation
                  JOINT LeftHandPinky2
                  {
                    OFFSET 1.900000 0.000000 0.000000
                    CHANNELS 3 Zrotation Xrotation Yrotation
                    JOINT LeftHandPinky3
                    {
                      OFFSET 1.400000 0.000000 0.000000
                      CHANNELS 3 Zrotation Xrotation Yrotation
                      End Site
                      {
                        OFFSET 1.300000 0.000000 0.000000
                      }
                    }
                  }
                }
              }
            }
          }
        }
        JOINT RightShoulder
        {
          OFFSET -6.000000 8.000000 0.000000
          CHANNELS 3 Zrotation Xrotation Yrotation
          JOINT RightArm
          {
            OFFSET -12.000000 0.000000 0.000000
            CHANNELS 3 Zrotation Xrotation Yrotation
            JOINT RightForeArm
            {
              OFFSET -24.000000 0.000000 0.000000
              CHANNELS 3 Zrotation Xrotation Yrotation
              JOINT RightHand
              {
                OFFSET -22.000000 0.000000 0.000000
                CHANNELS 3 Zrotation Xrotation Yrotation
                JOINT RightHandThumb1
                {
                  OFFSET -1.800000 -1.400000 0.500000
                  CHANNELS 3 Zrotation Xrotation Yrotation
                  JOINT RightHandThumb2
                  {
                    OFFSET -2.400000 0.000000 0.000000
                    CHANNELS 3 Zrotation Xrotation Yrotation
                    JOINT RightHandThumb3
                    {
                      OFFSET -1.900000 0.000000 0.000000
                      CHANNELS 3 Zrotation Xrotation Yrotation
                      End Site
                      {
                        OFFSET -1.600000 0.000000 0.000000
                      }
                    }
                  }
                }
                JOINT RightHandIndex1
                {
                  OFFSET -6.600000 1.200000 0.300000
                  CHANNELS 3 Zrotation Xrotation Yrotation
                  JOINT RightHandIndex2
                  {
                    OFFSET -2.000000 0.000000 0.000000
                    CHANNELS 3 Zrotation Xrotation Yrotation
                    JOINT RightHandIndex3
                    {
                      OFFSET -1.200000 0.000000 0.000000
                      CHANNELS 3 Zrotation Xrotation Yrotation
                      End Site
                      {
                        OFFSET -1.000000 0.000000 0.000000
                      }
                    }
                  }
                }
                JOINT RightHandMiddle1
                {
                  OFFSET -7.200000 0.000000 0.300000
                  CHANNELS 3 Zrotation Xrotation Yrotation
                  JOINT RightHandMiddle2
                  {
                    OFFSET -3.000000 0.000000 0.000000
                    CHANNELS 3 Zrotation Xrotation Yrotation
                    JOINT RightHandMiddle3
                    {
                      OFFSET -2.000000 0.000000 0.000000
                      CHANNELS 3 Zrotation Xrotation Yrotation
                      End Site
                      {
                        OFFSET -1.600000 0.000000 0.000000
                      }
                    }
                  }
                }
                JOINT RightHandRing1
                {
                  OFFSET -7.100000 -1.000000 0.400000
                  CHANNELS 3 Zrotation Xrotation Yrotation
                  JOINT RightHandRing2
                  {
                    OFFSET -2.600000 0.000000 0.000000
                    CHANNELS 3 Zrotation Xrotation Yrotation
                    JOINT RightHandRing3
                    {
                      OFFSET -1.600000 0.000000 0.000000
                      CHANNELS 3 Zrotation Xrotation Yrotation
                      End Site
                      {
                        OFFSET -1.300000 0.000000 0.000000
                      }
                    }
                  }
                }
                JOINT RightHandPinky1
                {
                  OFFSET -6.500000 -2.000000 0.500000
                  CHANNELS 3 Zrotation Xrotation Yrotation
                  JOINT RightHandPinky2
                  {
                    OFFSET -1.900000 0.000000 0.000000
                    CHANNELS 3 Zrotation Xrotation Yrotation
                    JOINT RightHandPinky3
                    {
                      OFFSET -1.400000 0.000000 0.000000
                      CHANNELS 3 Zrotation Xrotation Yrotation
                      End Site
                      {
                        OFFSET -1.300000 0.000000 0.000000
                      }
                    }
                  }
                }
              }
            }
          }
        }
      }
    }
  }
  JOINT LeftUpLeg
  {
    OFFSET 10.000000 -5.000000 0.000000
    CHANNELS 3 Zrotation Xrotation Yrotation
    JOINT LeftLeg
    {
      OFFSET 0.000000 -42.000000 0.000000
      CHANNELS 3 Zrotation Xrotation Yrotation
      JOINT LeftFoot
      {
        OFFSET 0.000000 -42.000000 4.000000
        CHANNELS 3 Zrotation Xrotation Yrotation
        End Site
        {
          OFFSET 0.000000 0.000000 12.000000
        }
      }
    }
  }
  JOINT RightUpLeg
  {
    OFFSET -10.000000 -5.000000 0.000000
    CHANNELS 3 Zrotation Xrotation Yrotation
    JOINT RightLeg
    {
      OFFSET 0.000000 -42.000000 0.000000
      CHANNELS 3 Zrotation Xrotation Yrotation
      JOINT RightFoot
      {
        OFFSET 0.000000 -42.000000 4.000000
        CHANNELS 3 Zrotation Xrotation Yrotation
        End Site
        {
          OFFSET 0.000000 0.000000 12.000000
        }
      }
    }
  }
}
MOTION
Frames: 9
Frame Time: 0.033333
0.0000 95.0000 0.0000 0.0000 0.0000 0.0000 0.0000 0.0000 0.0000 0.0000 0.0000 0.0000 0.0000 0.0000 0.0000 0.0000 0.0000 0.0000 0.0000 0.0000 0.0000 0.0000 0.0000 0.0000 -76.4860 -10.1173 -12.8167 -59.9372 37.6208 -128.6958 -446.1578 48.7495 652.7505 12.9389 9.3295 19.8617 12.0650 0.0000 0.0000 7.8107 0.0000 0.0000 -14.7742 0.3488 6.1102 19.7104 0.0000 0.0000 8.6893 0.0000 0.0000 0.6607 -0.0566 5.0271 15.9028 0.0000 0.0000 4.7865 0.0000 0.0000 9.5975 -0.3570 3.1856 18.6825 0.0000 0.0000 5.6226 0.0000 0.0000 20.2718 -1.3781 0.9519 12.5407 0.0000 0.0000 6.9652 0.0000 0.0000 0.0000 0.0000 0.0000 70.3313 -15.3699 21.6852 -136.9392 52.7228 -38.0017 -137.4426 -29.6720 134.8966 -55.3202 -11.4607 -2.1994 0.3261 0.0000 0.0000 2.2296 0.0000 0.0000 13.7355 0.3799 -3.9047 84.0627 0.0000 0.0000 49.1174 0.0000 0.0000 10.6063 0.4641 -0.2249 6.2705 0.0000 0.0000 3.3822 0.0000 0.0000 -17.4215 -0.9231 3.5935 110.0000 0.0000 0.0000 34.5405 0.0000 0.0000 -38.4576 -2.5147 6.7592 94.5896 0.0000 0.0000 41.1000 0.0000 0.0000 0.0000 0.0000 0.0000 0.0000 0.0000 0.0000 0.0000 0.0000 0.0000 0.0000 0.0000 0.0000 0.0000 0.0000 0.0000 0.0000 0.0000 0.0000
0.0000 95.0000 0.0000 0.0000 0.0000 0.0000 0.0000 0.0000 0.0000 0.0000 0.0000 0.0000 0.0000 0.0000 0.0000 0.0000 0.0000 0.0000 0.0000 0.0000 0.0000 0.0000 0.0000 0.0000 -75.6312 -8.9963 -11.5758 -54.0829 29.1230 -108.7328 -284.6903 25.9076 655.5764 7.8550 12.3911 20.4611 8.9119 0.0000 0.0000 7.1972 0.0000 0.0000 -9.1685 -0.6711 10.7481 16.0062 0.0000 0.0000 9.7089 0.0000 0.0000 3.0406 -0.3211 7.2819 18.2814 0.0000 0.0000 9.9716 0.0000 0.0000 1.3503 1.9570 15.5663 75.6710 0.0000 0.0000 42.0777 0.0000 0.0000 8.6605 2.3397 13.0543 78.0495 0.0000 0.0000 50.6254 0.0000 0.0000 0.0000 0.0000 0.0000 72.2424 -15.2994 20.8564 -140.2945 53.7701 -40.7332 -137.4722 -32.2162 126.4526 -58.4950 -11.9122 -3.5054 2.2379 0.0000 0.0000 4.9880 0.0000 0.0000 11.0413 0.3669 -1.5301 14.5635 0.0000 0.0000 11.1045 0.0000 0.0000 7.7581 0.1803 2.1133 2.9860 0.0000 0.0000 2.7040 0.0000 0.0000 -11.1652 -0.6632 0.9660 17.7551 0.0000 0.0000 4.7859 0.0000 0.0000 -35.3026 -2.5441 0.9173 86.4578 0.0000 0.0000 43.9245 0.0000 0.0000 0.0000 0.0000 0.0000 0.0000 0.0000 0.0000 0.0000 0.0000 0.0000 0.0000 0.0000 0.0000 0.0000 0.0000 0.0000 0.0000 0.0000 0.0000
0.0000 95.0000 0.0000 0.0000 0.0000 0.0000 0.0000 0.0000 0.0000 0.0000 0.0000 0.0000 0.0000 0.0000 0.0000 0.0000 0.0000 0.0000 0.0000 0.0000 0.0000 0.0000 0.0000 0.0000 -75.7920 -7.6857 -9.8645 -52.6081 19.9816 -89.2101 -174.4664 58.2566 565.4401 -3.9071 16.2662 17.3123 25.6311 0.0000 0.0000 5.9892 0.0000 0.0000 -16.2013 1.1711 -11.7488 19.9556 0.0000 0.0000 12.2076 0.0000 0.0000 -2.0606 -0.1488 -13.0342 20.0641 0.0000 0.0000 4.3179 0.0000 0.0000 6.2624 -1.5943 -14.6055 20.3270 0.0000 0.0000 5.6138 0.0000 0.0000 15.9826 -3.8525 -16.7742 15.2798 0.0000 0.0000 7.7622 0.0000 0.0000 0.0000 0.0000 0.0000 74.3607 -15.2594 20.0311 -142.7579 52.0674 -42.2254 -139.7085 -33.0194 122.5942 -61.9516 -12.5599 -4.1470 4.5630 0.0000 0.0000 9.4968 0.0000 0.0000 8.7783 0.3880 -0.0609 2.2709 0.0000 0.0000 4.4011 0.0000 0.0000 5.3081 0.0635 3.4025 0.2193 0.0000 0.0000 2.2229 0.0000 0.0000 -4.6478 -0.2109 -0.4979 4.1232 0.0000 0.0000 2.3874 0.0000 0.0000 -31.4307 -2.1911 -3.9910 76.6882 0.0000 0.0000 47.9204 0.0000 0.0000 0.0000 0.0000 0.0000 0.0000 0.0000 0.0000 0.0000 0.0000 0.0000 0.0000 0.0000 0.0000 0.0000 0.0000 0.0000 0.0000 0.0000 0.0000
0.0000 95.0000 0.0000 0.0000 0.0000 0.0000 0.0000 0.0000 0.0000 0.0000 0.0000 0.0000 0.0000 0.0000 0.0000 0.0000 0.0000 0.0000 0.0000 0.0000 0.0000 0.0000 0.0000 0.0000 -75.1055 -6.2571 -8.1333 -52.9838 14.4850 -77.2986 -183.6288 52.1512 559.6618 5.4254 11.3927 17.4856 6.9087 0.0000 0.0000 10.9502 0.0000 0.0000 -13.4674 0.7981 -3.1559 19.0319 0.0000 0.0000 8.9194 0.0000 0.0000 -0.0345 -0.0007 -6.9921 17.6147 0.0000 0.0000 3.9580 0.0000 0.0000 8.1672 -1.0947 -9.3359 17.1026 0.0000 0.0000 4.4971 0.0000 0.0000 18.6353 -2.8640 -10.9961 12.2095 0.0000 0.0000 4.2747 0.0000 0.0000 0.0000 0.0000 0.0000 75.7057 -15.2695 19.5725 -145.2607 51.7579 -44.0776 -132.6261 -35.0894 121.4101 -68.6629 -13.8219 -7.7070 9.4005 0.0000 0.0000 4.5417 0.0000 0.0000 14.8064 0.6223 -0.7701 6.1682 0.0000 0.0000 1.4205 0.0000 0.0000 -3.3969 -0.1734 -1.0711 9.4282 0.0000 0.0000 2.8241 0.0000 0.0000 -30.7256 -2.1320 -3.2668 110.0000 0.0000 0.0000 33.2789 0.0000 0.0000 -46.2223 -3.5418 -2.0283 93.0265 0.0000 0.0000 44.4327 0.0000 0.0000 0.0000 0.0000 0.0000 0.0000 0.0000 0.0000 0.0000 0.0000 0.0000 0.0000 0.0000 0.0000 0.0000 0.0000 0.0000 0.0000 0.0000 0.0000
0.0000 95.0000 0.0000 0.0000 0.0000 0.0000 0.0000 0.0000 0.0000 0.0000 0.0000 0.0000 0.0000 0.0000 0.0000 0.0000 0.0000 0.0000 0.0000 0.0000 0.0000 0.0000 0.0000 0.0000 -74.1679 -5.0326 -6.6549 -53.9164 11.0937 -69.7148 -186.7551 47.8600 556.3102 1.0143 13.6944 17.4834 12.0353 0.0000 0.0000 6.5808 0.0000 0.0000 -12.1934 0.6199 -1.0109 19.0577 0.0000 0.0000 9.5680 0.0000 0.0000 0.8911 -0.0022 -4.4840 18.7394 0.0000 0.0000 3.0906 0.0000 0.0000 9.1074 -0.9103 -6.6810 15.8099 0.0000 0.0000 3.2935 0.0000 0.0000 18.4175 -2.6127 -9.1201 12.1109 0.0000 0.0000 3.5546 0.0000 0.0000 0.0000 0.0000 0.0000 76.3804 -15.3821 19.4824 -147.8727 52.4263 -46.3864 -123.9655 -43.2159 108.5751 -65.2474 -12.6583 -12.4672 4.1825 0.0000 0.0000 7.6298 0.0000 0.0000 20.8271 0.9437 -7.6870 26.2141 0.0000 0.0000 11.7648 0.0000 0.0000 7.6630 0.0079 4.6534 3.3277 0.0000 0.0000 1.5173 0.0000 0.0000 -5.8866 -0.3647 0.3964 7.4375 0.0000 0.0000 1.7837 0.0000 0.0000 -28.4310 -1.6156 -9.2022 58.0657 0.0000 0.0000 62.6300 0.0000 0.0000 0.0000 0.0000 0.0000 0.0000 0.0000 0.0000 0.0000 0.0000 0.0000 0.0000 0.0000 0.0000 0.0000 0.0000 0.0000 0.0000 0.0000 0.0000
0.0000 95.0000 0.0000 0.0000 0.0000 0.0000 0.0000 0.0000 0.0000 0.0000 0.0000 0.0000 0.0000 0.0000 0.0000 0.0000 0.0000 0.0000 0.0000 0.0000 0.0000 0.0000 0.0000 0.0000 -73.5173 -4.1880 -5.6047 -55.2353 8.3660 -62.8222 -191.2242 35.2504 552.3962 0.4372 13.6084 17.0151 12.9355 0.0000 0.0000 6.6145 0.0000 0.0000 -12.2906 0.5949 -0.6195 22.0444 0.0000 0.0000 9.1386 0.0000 0.0000 1.1326 -0.0109 -3.6653 19.4622 0.0000 0.0000 3.5608 0.0000 0.0000 9.6566 -0.8622 -5.8427 16.9477 0.0000 0.0000 3.6786 0.0000 0.0000 20.9880 -2.4442 -7.8601 11.3151 0.0000 0.0000 4.8681 0.0000 0.0000 0.0000 0.0000 0.0000 75.7602 -15.5299 19.8845 -148.4172 54.7103 -47.7211 -137.1405 -32.9754 128.0155 -63.4382 -12.9858 -2.8319 1.2580 0.0000 0.0000 11.4257 0.0000 0.0000 18.7736 0.7175 -7.5098 3.7737 0.0000 0.0000 8.7676 0.0000 0.0000 10.9032 0.2936 1.6959 4.6736 0.0000 0.0000 2.2889 0.0000 0.0000 -11.0214 -0.7392 2.8712 16.8245 0.0000 0.0000 11.1533 0.0000 0.0000 -36.8665 -2.5367 5.1450 64.4286 0.0000 0.0000 46.9643 0.0000 0.0000 0.0000 0.0000 0.0000 0.0000 0.0000 0.0000 0.0000 0.0000 0.0000 0.0000 0.0000 0.0000 0.0000 0.0000 0.0000 0.0000 0.0000 0.0000
0.0000 95.0000 0.0000 0.0000 0.0000 0.0000 0.0000 0.0000 0.0000 0.0000 0.0000 0.0000 0.0000 0.0000 0.0000 0.0000 0.0000 0.0000 0.0000 0.0000 0.0000 0.0000 0.0000 0.0000 -73.1379 -3.5753 -4.8183 -55.8293 7.3054 -59.0469 -192.6390 29.3618 548.5728 -1.0699 15.0099 17.6914 14.3624 0.0000 0.0000 6.4184 0.0000 0.0000 -13.1474 0.6771 -1.3733 23.7200 0.0000 0.0000 10.1829 0.0000 0.0000 0.6696 -0.0017 -4.4729 21.6587 0.0000 0.0000 3.8406 0.0000 0.0000 9.3632 -0.9044 -6.5937 19.2424 0.0000 0.0000 3.9968 0.0000 0.0000 21.0562 -2.5205 -8.5307 12.8134 0.0000 0.0000 5.8239 0.0000 0.0000 0.0000 0.0000 0.0000 75.2044 -15.5540 20.1116 -148.8238 56.3293 -48.5263 -138.1869 -34.6264 128.6992 -64.1004 -13.3231 -0.2375 2.2841 0.0000 0.0000 9.6247 0.0000 0.0000 12.2716 0.0082 -7.4114 1.1006 0.0000 0.0000 11.0185 0.0000 0.0000 7.3925 0.0811 3.5160 3.5610 0.0000 0.0000 3.2963 0.0000 0.0000 -9.9071 -0.8071 4.7839 8.2760 0.0000 0.0000 6.3307 0.0000 0.0000 -29.8805 -2.4851 8.5956 51.9796 0.0000 0.0000 39.3345 0.0000 0.0000 0.0000 0.0000 0.0000 0.0000 0.0000 0.0000 0.0000 0.0000 0.0000 0.0000 0.0000 0.0000 0.0000 0.0000 0.0000 0.0000 0.0000 0.0000
0.0000 95.0000 0.0000 0.0000 0.0000 0.0000 0.0000 0.0000 0.0000 0.0000 0.0000 0.0000 0.0000 0.0000 0.0000 0.0000 0.0000 0.0000 0.0000 0.0000 0.0000 0.0000 0.0000 0.0000 -72.8547 -3.0024 -4.0675 -56.7798 6.4392 -56.4253 -194.3763 21.0645 550.0379 4.3590 12.0161 17.5845 8.2138 0.0000 0.0000 13.4602 0.0000 0.0000 -11.8562 0.4662 0.8465 26.2423 0.0000 0.0000 11.7936 0.0000 0.0000 3.0773 -0.0604 -2.5221 22.6941 0.0000 0.0000 4.9337 0.0000 0.0000 12.5832 -0.8330 -4.4432 21.1948 0.0000 0.0000 6.1677 0.0000 0.0000 24.1494 -2.3308 -6.4888 14.7998 0.0000 0.0000 7.4237 0.0000 0.0000 0.0000 0.0000 0.0000 74.9123 -15.4794 20.1197 -147.6236 58.3206 -48.3052 -137.7359 -31.9357 126.9423 -62.5349 -13.1026 0.3364 3.8952 0.0000 0.0000 6.9430 0.0000 0.0000 9.0699 -0.1861 -5.8630 5.0478 0.0000 0.0000 12.8455 0.0000 0.0000 7.4563 0.1702 2.1604 3.1526 0.0000 0.0000 3.7098 0.0000 0.0000 -8.6561 -0.6613 2.7719 4.8952 0.0000 0.0000 6.4324 0.0000 0.0000 -33.5746 -2.4541 5.2925 55.6183 0.0000 0.0000 56.3269 0.0000 0.0000 0.0000 0.0000 0.0000 0.0000 0.0000 0.0000 0.0000 0.0000 0.0000 0.0000 0.0000 0.0000 0.0000 0.0000 0.0000 0.0000 0.0000 0.0000
0.0000 95.0000 0.0000 0.0000 0.0000 0.0000 0.0000 0.0000 0.0000 0.0000 0.0000 0.0000 0.0000 0.0000 0.0000 0.0000 0.0000 0.0000 0.0000 0.0000 0.0000 0.0000 0.0000 0.0000 -72.4235 -2.8147 -3.8435 -57.0373 5.7700 -54.1520 -197.6730 21.9558 546.9355 3.0121 12.6242 17.4694 5.7624 0.0000 0.0000 12.0618 0.0000 0.0000 -11.9863 0.5344 0.0289 22.0633 0.0000 0.0000 10.3831 0.0000 0.0000 1.8682 -0.0232 -3.3460 22.9147 0.0000 0.0000 4.4020 0.0000 0.0000 12.1124 -0.8299 -4.5794 20.1169 0.0000 0.0000 5.2799 0.0000 0.0000 23.5420 -2.3564 -6.8580 15.7196 0.0000 0.0000 5.7955 0.0000 0.0000 0.0000 0.0000 0.0000 75.2576 -15.2290 19.6762 -147.2098 59.2715 -48.1471 -129.1946 -36.9334 117.2375 -65.7359 -13.3926 -3.5532 1.7931 0.0000 0.0000 7.3589 0.0000 0.0000 12.2905 0.3583 -2.6408 1.2126 0.0000 0.0000 8.0682 0.0000 0.0000 5.3044 0.0777 3.0950 3.2963 0.0000 0.0000 3.4265 0.0000 0.0000 -16.6676 -0.9298 -0.5341 39.8662 0.0000 0.0000 44.2965 0.0000 0.0000 -37.8237 -2.8036 -2.1689 74.9841 0.0000 0.0000 57.3851 0.0000 0.0000 0.0000 0.0000 0.0000 0.0000 0.0000 0.0000 0.0000 0.0000 0.0000 0.0000 0.0000 0.0000 0.0000 0.0000 0.0000 0.0000 0.0000 0.0000
